{
  "accessors": [
    {
      "bufferView": 2,
      "componentType": 5126,
      "count": 1174,
      "max": [
        59.825698852539062,
        57.080699920654297,
        21.0802001953125
      ],
      "min": [
        -59.825698852539062,
        -57.080699920654297,
        -21.0802001953125
      ],
      "type": "VEC3"
    },
    {
      "bufferView": 2,
      "byteOffset": 14088,
      "componentType": 5126,
      "count": 1174,
      "max": [
        1,
        1,
        1
      ],
      "min": [
        -1,
        -1,
        -1
      ],
      "type": "VEC3"
    },
    {
      "bufferView": 3,
      "componentType": 5126,
      "count": 1174,
      "max": [
        1,
        1,
        0.9900241494178772,
        1
      ],
      "min": [
        -1,
        -1,
        -0.99993354082107544,
        -1
      ],
      "type": "VEC4"
    },
    {
      "bufferView": 1,
      "componentType": 5126,
      "count": 1174,
      "max": [
        0.99659997224807739,
        0.99550002813339233
      ],
      "min": [
        0.00419999985024333,
        0.0092000002041459084
      ],
      "type": "VEC2"
    },
    {
      "bufferView": 0,
      "componentType": 5125,
      "count": 3996,
      "max": [
        1173
      ],
      "min": [
        0
      ],
      "type": "SCALAR"
    },
    {
      "bufferView": 2,
      "byteOffset": 28176,
      "componentType": 5126,
      "count": 84,
      "max": [
        56.147800445556641,
        -45.896198272705078,
        20.678400039672852
      ],
      "min": [
        -56.147701263427734,
        -56.761299133300781,
        -20.670600891113281
      ],
      "type": "VEC3"
    },
    {
      "bufferView": 2,
      "byteOffset": 29184,
      "componentType": 5126,
      "count": 84,
      "max": [
        0.43948307633399963,
        -0.86959999799728394,
        0.38647839426994324
      ],
      "min": [
        -0.43948307633399963,
        -0.99993729591369629,
        -0.32010066509246826
      ],
      "type": "VEC3"
    },
    {
      "bufferView": 3,
      "byteOffset": 18784,
      "componentType": 5126,
      "count": 84,
      "max": [
        1,
        0.44363033771514893,
        0.0044809752143919468,
        1
      ],
      "min": [
        0.89618086814880371,
        -0.44368848204612732,
        -0.0052418997511267662,
        -1
      ],
      "type": "VEC4"
    },
    {
      "bufferView": 1,
      "byteOffset": 9392,
      "componentType": 5126,
      "count": 84,
      "max": [
        0.98509997129440308,
        0.84450000524520874
      ],
      "min": [
        0.041099999099969864,
        0.27219998836517334
      ],
      "type": "VEC2"
    },
    {
      "bufferView": 0,
      "byteOffset": 15984,
      "componentType": 5125,
      "count": 360,
      "max": [
        83
      ],
      "min": [
        0
      ],
      "type": "SCALAR"
    }
  ],
  "asset": {
    "extras": {
      "author": "dez_z (https://sketchfab.com/dez_z)",
      "license": "CC-BY-4.0 (http://creativecommons.org/licenses/by/4.0/)",
      "source": "https://sketchfab.com/models/30a3f18ead9e452f9ab2c32151e7b2f6",
      "title": "Sun Glasses"
    },
    "generator": "Sketchfab-3.18.2",
    "version": "2.0"
  },
  "bufferViews": [
    {
      "buffer": 0,
      "byteLength": 17424,
      "byteOffset": 0,
      "name": "floatBufferViews",
      "target": 34963
    },
    {
      "buffer": 0,
      "byteLength": 10064,
      "byteOffset": 17424,
      "byteStride": 8,
      "name": "floatBufferViews",
      "target": 34962
    },
    {
      "buffer": 0,
      "byteLength": 30192,
      "byteOffset": 27488,
      "byteStride": 12,
      "name": "floatBufferViews",
      "target": 34962
    },
    {
      "buffer": 0,
      "byteLength": 20128,
      "byteOffset": 57680,
      "byteStride": 16,
      "name": "floatBufferViews",
      "target": 34962
    }
  ],
  "buffers": [
    {
      "byteLength": 77808,
      "uri": "scene.bin"
    }
  ],
  "images": [
    {
      "uri": "textures/default1_emissive.png"
    },
    {
      "uri": "textures/default1_baseColor.png"
    },
    {
      "uri": "textures/default2_emissive.png"
    }
  ],
  "materials": [
    {
      "doubleSided": true,
      "emissiveFactor": [
        0,
        0,
        0
      ],
      "emissiveTexture": {
        "index": 0,
        "texCoord": 0
      },
      "name": "default1",
      "pbrMetallicRoughness": {
        "baseColorFactor": [
          1,
          1,
          1,
          1
        ],
        "baseColorTexture": {
          "index": 1,
          "texCoord": 0
        },
        "metallicFactor": 0,
        "roughnessFactor": 0.59999999999999998
      }
    },
    {
      "alphaMode": "BLEND",
      "doubleSided": true,
      "emissiveFactor": [
        0,
        0,
        0
      ],
      "emissiveTexture": {
        "index": 2,
        "texCoord": 0
      },
      "name": "default2",
      "pbrMetallicRoughness": {
        "baseColorFactor": [
          0,
          0,
          0,
          0.77000000000000002
        ],
        "metallicFactor": 0,
        "roughnessFactor": 0.59999999999999998
      }
    }
  ],
  "meshes": [
    {
      "primitives": [
        {
          "attributes": {
            "NORMAL": 1,
            "POSITION": 0,
            "TANGENT": 2,
            "TEXCOORD_0": 3
          },
          "indices": 4,
          "material": 0,
          "mode": 4
        }
      ]
    },
    {
      "primitives": [
        {
          "attributes": {
            "NORMAL": 6,
            "POSITION": 5,
            "TANGENT": 7,
            "TEXCOORD_0": 8
          },
          "indices": 9,
          "material": 1,
          "mode": 4
        }
      ]
    }
  ],
  "nodes": [
    {
      "children": [
        1
      ],
      "name": "RootNode (gltf orientation matrix)",
      "rotation": [
        -0.70710678118654746,
        -0,
        -0,
        0.70710678118654757
      ]
    },
    {
      "children": [
        2
      ],
      "name": "RootNode (model correction matrix)"
    },
    {
      "children": [
        3,
        4
      ],
      "name": "sg.obj.cleaner"
    },
    {
      "mesh": 0,
      "name": ""
    },
    {
      "mesh": 1,
      "name": ""
    }
  ],
  "samplers": [
    {
      "magFilter": 9729,
      "minFilter": 9987,
      "wrapS": 10497,
      "wrapT": 10497
    }
  ],
  "scene": 0,
  "scenes": [
    {
      "name": "OSG_Scene",
      "nodes": [
        0
      ]
    }
  ],
  "textures": [
    {
      "sampler": 0,
      "source": 0
    },
    {
      "sampler": 0,
      "source": 1
    },
    {
      "sampler": 0,
      "source": 2
    }
  ]
}

